<svg width="26" height="31" viewBox="0 0 26 31" fill="none" xmlns="http://www.w3.org/2000/svg">
<path d="M25.2399 23.9636C24.7863 25.0118 24.2493 25.9764 23.6269 26.8636C22.7789 28.0728 22.0845 28.9097 21.5493 29.3747C20.7197 30.1376 19.8308 30.5282 18.879 30.5505C18.1957 30.5505 17.3717 30.3561 16.4124 29.9617C15.4501 29.569 14.5656 29.3747 13.757 29.3747C12.9089 29.3747 11.9993 29.569 11.0263 29.9617C10.0519 30.3561 9.26693 30.5616 8.66676 30.5821C7.75402 30.6207 6.84424 30.2189 5.93611 29.3747C5.3565 28.869 4.63154 28.0023 3.76303 26.7747C2.83121 25.4636 2.06514 23.9433 1.46497 22.21C0.822212 20.3378 0.5 18.5249 0.5 16.7698C0.5 14.7593 0.934434 13.0253 1.80459 11.5722C2.48846 10.405 3.39824 9.48429 4.53691 8.80841C5.67558 8.1325 6.9059 7.78805 8.23086 7.76602C8.95584 7.76602 9.90653 7.99028 11.088 8.43101C12.2661 8.8732 13.0225 9.09747 13.3542 9.09747C13.6021 9.09747 14.4425 8.83525 15.8671 8.3125C17.2143 7.8277 18.3513 7.62696 19.2827 7.70603C21.8067 7.90973 23.703 8.90469 24.9639 10.6972C22.7067 12.065 21.59 13.9806 21.6123 16.4381C21.6326 18.3523 22.3271 19.9452 23.6919 21.21C24.3102 21.797 25.0011 22.2507 25.7695 22.573C25.603 23.0563 25.4269 23.5192 25.2399 23.9636ZM19.4512 1.18476C19.4512 2.6851 18.9031 4.08597 17.8105 5.3826C16.4921 6.92401 14.8973 7.81474 13.1679 7.67419C13.1459 7.49419 13.1331 7.30475 13.1331 7.10567C13.1331 5.66536 13.7601 4.12392 14.8736 2.8636C15.4295 2.22547 16.1365 1.69488 16.9939 1.27161C17.8494 0.854663 18.6587 0.624081 19.4197 0.584595C19.442 0.785167 19.4512 0.985751 19.4512 1.18474V1.18476Z" fill="white"/>
</svg>
