<svg width="24" height="24" viewBox="0 0 24 24" fill="none" xmlns="http://www.w3.org/2000/svg">
<path d="M17.561 6.10417L16.3303 4.25998C16.0731 3.87214 15.7242 3.55408 15.3148 3.33424C14.9054 3.11439 14.448 2.99962 13.9836 3H10.0257C9.56122 2.99962 9.10391 3.11439 8.69446 3.33424C8.28502 3.55408 7.93617 3.87214 7.67899 4.25998L6.44821 6.10417C5.2346 6.21181 4.10509 6.77103 3.28189 7.67176C2.4587 8.5725 2.00141 9.74961 2 10.9714V16.1143C2.00163 17.4096 2.51544 18.6512 3.42872 19.5671C4.34201 20.483 5.58021 20.9984 6.8718 21H17.1282C18.4198 20.9984 19.658 20.483 20.5713 19.5671C21.4846 18.6512 21.9984 17.4096 22 16.1143V10.9714C21.9981 9.75127 21.5419 8.57577 20.7207 7.67541C19.8996 6.77504 18.7727 6.21468 17.561 6.10417ZM20.4708 16.1153C20.4697 17.0015 20.1182 17.8511 19.4933 18.4778C18.8684 19.1045 18.0212 19.4571 17.1374 19.4581H6.88103C5.99731 19.4571 5.15008 19.1045 4.5252 18.4778C3.90031 17.8511 3.54878 17.0015 3.5477 16.1153V10.9724C3.54878 10.0862 3.90031 9.23661 4.5252 8.60993C5.15008 7.98326 5.99731 7.63067 6.88103 7.62958C7.00768 7.62966 7.13239 7.59836 7.24405 7.53842C7.35571 7.47848 7.45085 7.39178 7.52102 7.28605L8.96308 5.11678C9.07984 4.94035 9.23837 4.79564 9.4245 4.69566C9.61064 4.59569 9.8186 4.54355 10.0298 4.54386H13.9877C14.1988 4.54355 14.4068 4.59569 14.5929 4.69566C14.7791 4.79564 14.9376 4.94035 15.0544 5.11678L16.4964 7.28605C16.5667 7.39165 16.6619 7.47825 16.7735 7.53817C16.8851 7.59809 17.0098 7.62948 17.1364 7.62958C18.0201 7.63067 18.8674 7.98326 19.4922 8.60993C20.1171 9.23661 20.4687 10.0862 20.4697 10.9724V16.1153H20.4708ZM12.0092 9.17243C11.2485 9.17243 10.5049 9.39862 9.87244 9.82245C9.23994 10.2463 8.74697 10.8487 8.45586 11.5535C8.16475 12.2583 8.08857 13.0338 8.23698 13.782C8.38538 14.5303 8.75171 15.2175 9.2896 15.7569C9.8275 16.2964 10.5128 16.6638 11.2589 16.8126C12.005 16.9615 12.7783 16.8851 13.4811 16.5932C14.1839 16.3012 14.7846 15.8068 15.2072 15.1725C15.6298 14.5382 15.8554 13.7924 15.8554 13.0296C15.8543 12.0069 15.4487 11.0265 14.7277 10.3033C14.0066 9.58022 13.029 9.17352 12.0092 9.17243ZM12.0092 15.3439C11.5528 15.3439 11.1066 15.2082 10.7272 14.9539C10.3477 14.6996 10.0519 14.3381 9.8772 13.9153C9.70253 13.4924 9.65685 13.027 9.74589 12.5781C9.83494 12.1291 10.0547 11.7168 10.3774 11.3932C10.7002 11.0695 11.1114 10.849 11.559 10.7597C12.0067 10.6704 12.4707 10.7163 12.8923 10.8914C13.314 11.0666 13.6745 11.3633 13.928 11.7439C14.1816 12.1244 14.3169 12.5719 14.3169 13.0296C14.3164 13.6432 14.0731 14.2316 13.6404 14.6655C13.2077 15.0994 12.6211 15.3433 12.0092 15.3439ZM19.1887 9.94386C19.1887 10.1473 19.1286 10.3461 19.0159 10.5153C18.9032 10.6844 18.743 10.8162 18.5556 10.8941C18.3682 10.9719 18.1619 10.9924 17.963 10.9527C17.764 10.913 17.5813 10.8151 17.4379 10.6712C17.2944 10.5274 17.1967 10.344 17.1572 10.1445C17.1176 9.94498 17.1379 9.73819 17.2155 9.55024C17.2931 9.36229 17.4246 9.20171 17.5933 9.08869C17.7619 8.97567 17.9602 8.91529 18.1631 8.91529C18.4351 8.91529 18.696 9.02361 18.8883 9.21651C19.0806 9.4094 19.1887 9.67107 19.1887 9.94386Z" fill="#AA73F0"/>
</svg>
