<svg width="20" height="17" viewBox="0 0 20 17" fill="none" xmlns="http://www.w3.org/2000/svg">
<path d="M18 0.318604C18.5304 0.318604 19.0391 0.529317 19.4142 0.90439C19.7893 1.27946 20 1.78817 20 2.3186V14.3186C20 14.849 19.7893 15.3577 19.4142 15.7328C19.0391 16.1079 18.5304 16.3186 18 16.3186H2C1.46957 16.3186 0.960859 16.1079 0.585786 15.7328C0.210714 15.3577 0 14.849 0 14.3186V2.3186C0 1.78817 0.210714 1.27946 0.585786 0.90439C0.960859 0.529317 1.46957 0.318604 2 0.318604H18ZM18 14.3186V2.3186H2V14.3186H18ZM4 6.3186H6V8.3186H4V6.3186ZM4 10.3186H12V12.3186H4V10.3186ZM14 10.3186H16V12.3186H14V10.3186ZM8 6.3186H16V8.3186H8V6.3186Z" fill="white"/>
</svg>
