<svg width="24" height="24" viewBox="0 0 24 24" fill="none" xmlns="http://www.w3.org/2000/svg">
<path d="M17.9999 6.60015C17.8408 6.60015 17.6882 6.53693 17.5756 6.42441C17.4631 6.31189 17.3999 6.15928 17.3999 6.00015V3.30015C17.3999 3.06145 17.3051 2.83253 17.1363 2.66375C16.9675 2.49497 16.7386 2.40015 16.4999 2.40015C16.2612 2.40015 16.0323 2.49497 15.8635 2.66375C15.6947 2.83253 15.5999 3.06145 15.5999 3.30015V6.00015C15.5999 6.63667 15.8528 7.24711 16.3028 7.6972C16.7529 8.14729 17.3634 8.40015 17.9999 8.40015H20.6999C20.9386 8.40015 21.1675 8.30532 21.3363 8.13654C21.5051 7.96776 21.5999 7.73884 21.5999 7.50015C21.5999 7.26145 21.5051 7.03253 21.3363 6.86375C21.1675 6.69497 20.9386 6.60015 20.6999 6.60015H17.9999ZM6.5999 18.0001C6.5999 17.841 6.53669 17.6884 6.42417 17.5759C6.31164 17.4634 6.15903 17.4001 5.9999 17.4001H3.2999C3.06121 17.4001 2.83229 17.3053 2.66351 17.1365C2.49472 16.9678 2.3999 16.7388 2.3999 16.5001C2.3999 16.2614 2.49472 16.0325 2.66351 15.8637C2.83229 15.695 3.06121 15.6001 3.2999 15.6001H5.9999C6.63642 15.6001 7.24687 15.853 7.69696 16.3031C8.14705 16.7532 8.3999 17.3636 8.3999 18.0001V20.7001C8.3999 20.9388 8.30508 21.1678 8.1363 21.3365C7.96751 21.5053 7.7386 21.6001 7.4999 21.6001C7.26121 21.6001 7.03229 21.5053 6.86351 21.3365C6.69472 21.1678 6.5999 20.9388 6.5999 20.7001V18.0001ZM17.3999 18.0001C17.3999 17.841 17.4631 17.6884 17.5756 17.5759C17.6882 17.4634 17.8408 17.4001 17.9999 17.4001H20.6999C20.9386 17.4001 21.1675 17.3053 21.3363 17.1365C21.5051 16.9678 21.5999 16.7388 21.5999 16.5001C21.5999 16.2614 21.5051 16.0325 21.3363 15.8637C21.1675 15.695 20.9386 15.6001 20.6999 15.6001H17.9999C17.3634 15.6001 16.7529 15.853 16.3028 16.3031C15.8528 16.7532 15.5999 17.3636 15.5999 18.0001V20.7001C15.5999 20.9388 15.6947 21.1678 15.8635 21.3365C16.0323 21.5053 16.2612 21.6001 16.4999 21.6001C16.7386 21.6001 16.9675 21.5053 17.1363 21.3365C17.3051 21.1678 17.3999 20.9388 17.3999 20.7001V18.0001ZM6.5999 6.00015C6.5999 6.15928 6.53669 6.31189 6.42417 6.42441C6.31164 6.53693 6.15903 6.60015 5.9999 6.60015H3.2999C3.06121 6.60015 2.83229 6.69497 2.66351 6.86375C2.49472 7.03253 2.3999 7.26145 2.3999 7.50015C2.3999 7.73884 2.49472 7.96776 2.66351 8.13654C2.83229 8.30532 3.06121 8.40015 3.2999 8.40015H5.9999C6.63642 8.40015 7.24687 8.14729 7.69696 7.6972C8.14705 7.24711 8.3999 6.63667 8.3999 6.00015V3.30015C8.3999 3.06145 8.30508 2.83253 8.1363 2.66375C7.96751 2.49497 7.7386 2.40015 7.4999 2.40015C7.26121 2.40015 7.03229 2.49497 6.86351 2.66375C6.69472 2.83253 6.5999 3.06145 6.5999 3.30015V6.00015Z" fill="white"/>
</svg>
