<svg width="31" height="31" viewBox="0 0 31 31" fill="none" xmlns="http://www.w3.org/2000/svg">
<path d="M7.14863 18.7136L6.10437 22.6119L2.28763 22.6926C1.14699 20.577 0.5 18.1564 0.5 15.5842C0.5 13.0969 1.10492 10.7513 2.17719 8.68591H2.17801L5.57597 9.30888L7.06449 12.6864C6.75294 13.5947 6.58314 14.5697 6.58314 15.5842C6.58326 16.6853 6.78271 17.7403 7.14863 18.7136Z" fill="#FBBB00"/>
<path d="M30.238 12.7825C30.4102 13.6898 30.5001 14.6269 30.5001 15.5846C30.5001 16.6585 30.3871 17.7061 30.172 18.7165C29.4419 22.1549 27.5339 25.1574 24.8908 27.2821L24.8899 27.2812L20.61 27.0629L20.0043 23.2815C21.7581 22.253 23.1287 20.6434 23.8507 18.7165H15.8298V12.7825H23.9677H30.238Z" fill="#518EF8"/>
<path d="M24.8898 27.2813L24.8906 27.2821C22.32 29.3483 19.0546 30.5846 15.4999 30.5846C9.78759 30.5846 4.82113 27.3918 2.2876 22.6932L7.14859 18.7141C8.41533 22.0948 11.6766 24.5014 15.4999 24.5014C17.1433 24.5014 18.6829 24.0572 20.004 23.2816L24.8898 27.2813Z" fill="#28B446"/>
<path d="M25.0745 4.03784L20.2151 8.01609C18.8479 7.16145 17.2316 6.66774 15.5 6.66774C11.5901 6.66774 8.26788 9.18473 7.0646 12.6867L2.17807 8.68616H2.17725C4.67369 3.87302 9.70279 0.584595 15.5 0.584595C19.1396 0.584595 22.4767 1.88103 25.0745 4.03784Z" fill="#F14336"/>
</svg>
