<svg width="45" height="45" viewBox="0 0 45 45" fill="none" xmlns="http://www.w3.org/2000/svg">
<path d="M6.00049 24.3333C6.00049 27.5966 6.9682 30.7867 8.78124 33.5002C10.5943 36.2136 13.1712 38.3284 16.1862 39.5773C19.2012 40.8261 22.5188 41.1529 25.7195 40.5162C28.9202 39.8796 31.8602 38.3081 34.1677 36.0005C36.4753 33.6929 38.0468 30.7529 38.6834 27.5522C39.3201 24.3516 38.9933 21.034 37.7445 18.019C36.4957 15.004 34.3808 12.427 31.6674 10.614C28.954 8.80096 25.7639 7.83325 22.5005 7.83325M17.0005 16.9999V29.8333" stroke="white" stroke-width="2.75" stroke-linecap="round" stroke-linejoin="round"/>
<path d="M28.0005 17.0003H24.3338C23.8476 17.0003 23.3813 17.1935 23.0375 17.5373C22.6936 17.8811 22.5005 18.3474 22.5005 18.8337V21.5837C22.5005 22.0699 22.6936 22.5362 23.0375 22.88C23.3813 23.2238 23.8476 23.417 24.3338 23.417H26.1672C26.6534 23.417 27.1197 23.6101 27.4635 23.954C27.8073 24.2978 28.0005 24.7641 28.0005 25.2503V28.0003C28.0005 28.4866 27.8073 28.9529 27.4635 29.2967C27.1197 29.6405 26.6534 29.8337 26.1672 29.8337H22.5005M22.5005 7.83366H8.75049M8.75049 7.83366L12.4172 4.16699M8.75049 7.83366L12.4172 11.5003" stroke="white" stroke-width="2.75" stroke-linecap="round" stroke-linejoin="round"/>
</svg>
