<svg width="45" height="45" viewBox="0 0 45 45" fill="none" xmlns="http://www.w3.org/2000/svg">
<path d="M39.001 24.1515C39.001 27.4149 38.0333 30.605 36.2202 33.3184C34.4072 36.0318 31.8302 38.1467 28.8153 39.3955C25.8003 40.6444 22.4827 40.9711 19.282 40.3345C16.0813 39.6978 13.1413 38.1264 10.8337 35.8188C8.52616 33.5112 6.95468 30.5712 6.31803 27.3705C5.68137 24.1698 6.00813 20.8522 7.25697 17.8373C8.50582 14.8223 10.6207 12.2453 13.3341 10.4323C16.0475 8.61924 19.2376 7.65153 22.501 7.65153H36.251M36.251 7.65153L32.5843 3.98486M36.251 7.65153L32.5843 11.3182M17.001 16.8182V29.6515" stroke="white" stroke-width="2.75" stroke-linecap="round" stroke-linejoin="round"/>
<path d="M28.001 16.8179H24.3343C23.8481 16.8179 23.3818 17.011 23.0379 17.3548C22.6941 17.6987 22.501 18.165 22.501 18.6512V21.4012C22.501 21.8874 22.6941 22.3537 23.0379 22.6976C23.3818 23.0414 23.8481 23.2345 24.3343 23.2345H26.1676C26.6539 23.2345 27.1202 23.4277 27.464 23.7715C27.8078 24.1153 28.001 24.5816 28.001 25.0679V27.8179C28.001 28.3041 27.8078 28.7704 27.464 29.1142C27.1202 29.4581 26.6539 29.6512 26.1676 29.6512H22.501" stroke="white" stroke-width="2.75" stroke-linecap="round" stroke-linejoin="round"/>
</svg>
