<svg width="17" height="20" viewBox="0 0 17 20" fill="none" xmlns="http://www.w3.org/2000/svg">
<path d="M8.71857 1.66859C9.00732 0.953585 9.8117 0.183585 10.8443 0.47096C11.6556 0.69646 12.1822 1.18596 12.4847 1.84046C12.7652 2.44959 12.8339 3.16734 12.8477 3.85071C12.8614 4.58634 12.7074 5.46771 12.5273 6.24046C12.4469 6.58192 12.3575 6.92121 12.2592 7.25796H14.1636C14.5908 7.25799 15.0122 7.35757 15.3943 7.54882C15.7764 7.74007 16.1087 8.01772 16.3647 8.35975C16.6208 8.70177 16.7937 9.09877 16.8696 9.51924C16.9456 9.93971 16.9225 10.3721 16.8022 10.7821L14.9267 17.1703C14.798 17.6087 14.5833 18.017 14.2949 18.3715C14.0066 18.7259 13.6506 19.0193 13.2475 19.2345C12.8445 19.4497 12.4027 19.5824 11.9478 19.6248C11.4929 19.6673 11.0341 19.6186 10.5982 19.4817L2.64382 17.1703C2.24541 17.0452 1.88073 16.831 1.57745 16.5439C1.27417 16.2568 1.04026 15.9044 0.893449 15.5135L0.750122 14.125C0.731063 13.2659 0.53405 12.337 0.749324 11.7269C0.964598 11.1167 1.38809 10.6021 1.94532 10.2733L4.51932 8.75534C4.7787 8.55019 5.01936 8.32242 5.23845 8.07471C5.71145 7.53983 6.36182 6.65021 7.01495 5.26284C7.29682 4.66334 7.53332 4.19171 7.74782 3.76409C8.0957 3.07246 8.3872 2.49359 8.71857 1.66859ZM5.25907 9.91446C5.25137 9.91919 5.24358 9.92378 5.2357 9.92821L2.64383 11.4572C2.36521 11.6216 2.15346 11.8789 2.04582 12.184C1.93819 12.489 2.05532 13.2215 2.04582 13.7055C2.03632 14.1895 2.18045 15.0295 2.18045 15.0295C2.25384 15.2251 2.37086 15.4015 2.52263 15.5452C2.6744 15.6888 2.85692 15.796 3.05632 15.8586L11.0079 18.17C11.2695 18.2524 11.5449 18.2818 11.818 18.2565C12.0911 18.2312 12.3564 18.1517 12.5984 18.0226C12.8403 17.8936 13.0542 17.7176 13.2273 17.5049C13.4004 17.2922 13.5294 17.0471 13.6067 16.784L15.4808 10.3957C15.5411 10.1906 15.5527 9.97429 15.5148 9.76391C15.4769 9.55353 15.3904 9.3549 15.2622 9.18378C15.1341 9.01267 14.9678 8.87379 14.7766 8.77817C14.5855 8.68256 14.3746 8.63284 14.1608 8.63296H11.3201C11.2101 8.6329 11.1017 8.60644 11.0041 8.55582C10.9064 8.5052 10.8223 8.43188 10.7589 8.34203C10.6954 8.25218 10.6545 8.14842 10.6394 8.03945C10.6244 7.93049 10.6357 7.81951 10.6725 7.71584C10.8099 7.32809 11.0189 6.65571 11.1894 5.92559C11.3627 5.18584 11.4851 4.43784 11.4741 3.87684C11.4603 3.23334 11.3929 2.75484 11.2362 2.41659C11.1014 2.12096 10.8911 1.91059 10.4772 1.79509C10.4181 1.77859 10.3479 1.78409 10.2572 1.84321C10.1387 1.9278 10.0479 2.04546 9.99595 2.18146C9.67922 2.95342 9.32825 3.71088 8.94407 4.45159C8.73095 4.87646 8.50682 5.32334 8.2607 5.84721C7.55395 7.35146 6.8307 8.35246 6.26695 8.98633C5.98645 9.30259 5.7472 9.52671 5.5712 9.67659C5.48181 9.75256 5.38914 9.82459 5.29345 9.89246L5.27145 9.90621L5.26457 9.91171L5.25907 9.91446Z" fill="white"/>
</svg>
