<svg width="18" height="18" viewBox="0 0 18 18" fill="none" xmlns="http://www.w3.org/2000/svg">
<path d="M8.38816 1.12805L0.82566 16.2531C0.766375 16.3716 0.74262 16.5048 0.757257 16.6365C0.771894 16.7682 0.824298 16.8929 0.90816 16.9956C0.990311 17.0936 1.09818 17.1667 1.21963 17.2068C1.34108 17.2469 1.4713 17.2523 1.59566 17.2224L8.31254 15.4006V7.62493H9.68754V15.4006L16.3838 17.2499C16.4876 17.278 16.5966 17.2812 16.702 17.2595C16.8073 17.2377 16.9061 17.1916 16.9903 17.1247C17.0746 17.0578 17.142 16.9721 17.1871 16.8745C17.2322 16.7768 17.2538 16.6699 17.25 16.5624C17.2494 16.4548 17.2235 16.3488 17.1744 16.2531L9.61191 1.12805C9.55422 1.01544 9.46656 0.920931 9.3586 0.854939C9.25064 0.788944 9.12657 0.754025 9.00004 0.754025C8.8735 0.754025 8.74943 0.788944 8.64147 0.854939C8.53351 0.920931 8.44585 1.01544 8.38816 1.12805Z" fill="#AA73F0"/>
</svg>
