<svg width="24" height="25" viewBox="0 0 24 25" fill="none" xmlns="http://www.w3.org/2000/svg">
<path d="M12.0001 2.3186C10.6869 2.3186 9.38653 2.57726 8.17328 3.07981C6.96002 3.58236 5.85763 4.31895 4.92904 5.24754C3.05368 7.1229 2.00011 9.66644 2.00011 12.3186C1.99137 14.6277 2.7909 16.8671 4.26011 18.6486L2.26011 20.6486C2.12135 20.7892 2.02736 20.9678 1.98998 21.1618C1.95261 21.3558 1.97353 21.5565 2.05011 21.7386C2.13317 21.9185 2.26781 22.0697 2.43696 22.173C2.6061 22.2763 2.80211 22.3269 3.00011 22.3186H12.0001C14.6523 22.3186 17.1958 21.265 19.0712 19.3897C20.9465 17.5143 22.0001 14.9708 22.0001 12.3186C22.0001 9.66644 20.9465 7.1229 19.0712 5.24754C17.1958 3.37217 14.6523 2.3186 12.0001 2.3186ZM12.0001 20.3186H5.41011L6.34011 19.3886C6.52636 19.2012 6.6309 18.9478 6.6309 18.6836C6.6309 18.4194 6.52636 18.166 6.34011 17.9786C5.0307 16.6706 4.21528 14.9491 4.0328 13.1074C3.85032 11.2657 4.31205 9.41761 5.33934 7.87813C6.36662 6.33864 7.8959 5.20296 9.66663 4.66458C11.4374 4.12619 13.34 4.21841 15.0503 4.92552C16.7607 5.63263 18.173 6.91088 19.0465 8.54249C19.9201 10.1741 20.201 12.0581 19.8412 13.8736C19.4815 15.6891 18.5034 17.3236 17.0736 18.4988C15.6439 19.674 13.8509 20.3171 12.0001 20.3186Z" fill="white"/>
</svg>
